<?xml version="1.0" standalone="no"?>
<!DOCTYPE svg PUBLIC "-//W3C//DTD SVG 20010904//EN"
 "http://www.w3.org/TR/2001/REC-SVG-20010904/DTD/svg10.dtd">
<svg version="1.0" xmlns="http://www.w3.org/2000/svg"
 width="16.000000pt" height="16.000000pt" viewBox="0 0 16.000000 16.000000"
 preserveAspectRatio="xMidYMid meet">
<metadata>
Created by potrace 1.11, written by Peter Selinger 2001-2013
</metadata>
<g transform="translate(0.000000,16.000000) scale(0.006154,-0.006154)"
fill="#000000" stroke="none">
<path d="M219 2526 c-56 -20 -96 -53 -126 -104 l-28 -47 0 -1076 0 -1076 30
-49 c19 -30 49 -60 79 -79 l49 -30 1077 0 1077 0 49 30 c30 19 60 49 79 79
l30 49 0 1077 0 1077 -30 49 c-19 30 -49 60 -79 79 l-49 30 -1061 2 c-850 2
-1068 0 -1097 -11z m701 -506 l0 -330 -335 0 -335 0 0 330 0 330 335 0 335 0
0 -330z m720 212 l0 -117 -167 -40 c-224 -53 -213 -41 -213 -235 l0 -150 -145
0 -145 0 0 330 0 330 335 0 335 0 0 -118z m710 -212 l0 -330 -135 0 c-91 0
-148 5 -177 15 -24 8 -112 30 -195 50 l-153 37 0 34 c0 19 3 34 7 34 26 0 483
115 501 126 20 13 22 22 22 107 0 59 -4 97 -12 105 -26 26 -168 14 -343 -28
-92 -22 -168 -40 -171 -40 -2 0 -4 50 -4 110 l0 110 330 0 330 0 0 -330z
m-710 -195 c0 -17 -4 -18 -51 -8 -33 7 -33 7 -9 14 41 12 60 10 60 -6z m-720
-520 l0 -335 -335 0 -335 0 0 335 0 335 335 0 335 0 0 -335z m357 324 c6 -6
89 -30 184 -53 l174 -41 3 -67 3 -66 -158 -37 c-87 -20 -168 -43 -180 -51 -21
-13 -23 -22 -23 -107 0 -59 4 -97 12 -105 19 -19 172 -15 258 8 41 11 78 20
83 20 4 0 7 -36 7 -80 l0 -80 -335 0 -335 0 0 335 0 335 148 0 c94 0 152 -4
159 -11z m1073 -324 l0 -335 -330 0 -331 0 3 87 3 88 245 60 c135 33 251 64
258 68 9 6 12 56 12 188 l0 179 70 0 70 0 0 -335z m-575 196 c141 -39 139 -34
32 -59 -53 -12 -101 -22 -106 -22 -6 0 -11 21 -11 50 0 28 3 50 8 50 4 0 39
-9 77 -19z m-855 -916 l0 -335 -335 0 -335 0 0 335 0 335 335 0 335 0 0 -335z
m720 0 l0 -335 -335 0 -335 0 0 335 0 335 335 0 335 0 0 -335z m710 0 l0 -335
-330 0 -330 0 0 335 0 335 330 0 330 0 0 -335z"/>
<path d="M446 2198 c-15 -121 -16 -197 -4 -204 6 -4 44 -8 83 -8 45 -1 78 -6
88 -15 21 -17 22 -84 2 -101 -25 -20 -99 -24 -149 -7 l-46 16 0 -44 c0 -40 3
-45 28 -52 15 -5 61 -8 102 -8 57 0 83 5 109 20 44 26 71 78 71 135 0 89 -65
145 -159 138 l-46 -3 3 48 4 47 84 0 84 0 0 40 0 40 -124 0 -125 0 -5 -42z"/>
<path d="M482 770 l-72 -58 23 -28 24 -28 42 33 41 33 0 -176 0 -176 50 0 50
0 0 230 0 230 -42 0 c-37 -1 -53 -9 -116 -60z"/>
<path d="M1226 805 c-57 -20 -62 -29 -37 -64 26 -36 21 -35 57 -16 41 21 90
19 115 -6 11 -11 18 -27 15 -36 -3 -8 -6 -18 -6 -22 0 -14 -50 -31 -90 -31
-39 0 -40 -1 -40 -34 0 -33 0 -34 54 -38 30 -3 62 -10 70 -17 20 -17 21 -75 1
-91 -31 -26 -117 -24 -187 5 -15 6 -18 1 -18 -34 0 -55 21 -65 135 -66 76 0
96 3 126 22 43 27 59 59 59 117 0 47 -24 82 -65 92 -30 7 -32 20 -5 29 49 16
76 96 49 147 -26 49 -150 73 -233 43z"/>
</g>
</svg>
